<svg id="Layer_1" data-name="Layer 1" xmlns="http://www.w3.org/2000/svg" xmlns:xlink="http://www.w3.org/1999/xlink" viewBox="0 0 100 100"><defs><style>.cls-1,.cls-2,.cls-3{fill:none;}.cls-2{clip-path:url(#clip-path);}.cls-3{clip-path:url(#clip-path-2);}.cls-4{clip-path:url(#clip-path-3);}.cls-5{clip-path:url(#clip-path-4);}.cls-6{fill:#054080;}.cls-6,.cls-9{fill-rule:evenodd;}.cls-7{clip-path:url(#clip-path-5);}.cls-8{clip-path:url(#clip-path-6);}</style><clipPath id="clip-path"><polygon class="cls-1" points="80.94 -138 82.01 -138 80.94 -136.94 80.94 -138"/></clipPath><clipPath id="clip-path-2"><polygon class="cls-1" points="-135.36 -35.33 -134.66 -35.33 -135.36 -34.63 -135.36 -35.33"/></clipPath><clipPath id="clip-path-3"><rect class="cls-1" x="219.09" y="0.09" width="99.81" height="99.81"/></clipPath><clipPath id="clip-path-4"><polygon class="cls-2" points="78.82 -140.13 77.75 -140.13 78.82 -141.19 78.82 -140.13"/></clipPath><clipPath id="clip-path-5"><rect class="cls-1" x="0.09" y="0.09" width="99.81" height="99.81"/></clipPath><clipPath id="clip-path-6"><polygon class="cls-3" points="-136.76 -36.73 -137.46 -36.73 -136.76 -37.43 -136.76 -36.73"/></clipPath></defs><title>Artboard 1 copy 7</title><g class="cls-4"><g class="cls-5"><path id="SvgjsPath1004" class="cls-6" d="M94.76-91.65a32.41,32.41,0,0,1,32.54-32.54H626.2V407.26H94.76Z"/></g></g><g class="cls-7"><g class="cls-8"><path id="SvgjsPath1004-2" data-name="SvgjsPath1004" class="cls-6" d="M-126.27-4.85a21.31,21.31,0,0,1,21.39-21.39H223.2V323.23H-126.27Z"/></g><path id="r2C12" class="cls-9" d="M16.55.12h5.59V11.3H16.55A5.59,5.59,0,0,1,11,5.71h0A5.59,5.59,0,0,1,16.55.12"/><path id="r2C13" class="cls-9" d="M22.05.12H33.22V11.3H22.05V.12"/><path id="r2C14" class="cls-9" d="M33.14.12H44.31V11.3H33.14V.12"/><path id="r2C15" class="cls-9" d="M44.22.12h5.59A5.59,5.59,0,0,1,55.4,5.71h0a5.59,5.59,0,0,1-5.59,5.59H44.22V.12"/><path id="r2C18" class="cls-9" d="M83.07.12h5.59V11.3H83.07a5.59,5.59,0,0,1-5.59-5.59h0A5.59,5.59,0,0,1,83.07.12"/><path id="r2C19" class="cls-9" d="M88.57.12H99.75V11.3H88.57V.12"/><path id="r3C12" class="cls-9" d="M16.55,11.21h5.59V22.39H16.55A5.59,5.59,0,0,1,11,16.8h0a5.59,5.59,0,0,1,5.59-5.59"/><path id="r3C13" class="cls-9" d="M22.05,11.21H33.22V22.39H22.05V11.21"/><path id="r3C14" class="cls-9" d="M33.14,11.21H44.31V22.39H33.14V11.21"/><path id="r3C15" class="cls-9" d="M44.22,11.21H55.4V22.39H44.22V11.21"/><path id="r3C16" class="cls-9" d="M55.31,11.21H66.49V22.39H55.31V11.21"/><path id="r3C17" class="cls-9" d="M66.4,11.21H72a5.59,5.59,0,0,1,5.59,5.59h0A5.59,5.59,0,0,1,72,22.39H66.4V11.21"/><path id="r3C19" class="cls-9" d="M94.16,11.21h0a5.59,5.59,0,0,1,5.59,5.59h0a5.6,5.6,0,0,1-5.59,5.59h0a5.59,5.59,0,0,1-5.59-5.59h0a5.59,5.59,0,0,1,5.59-5.59"/><path id="r4C13" class="cls-9" d="M27.64,22.3h0a5.58,5.58,0,0,1,5.58,5.58h0a5.58,5.58,0,0,1-5.58,5.59h0a5.59,5.59,0,0,1-5.59-5.59h0a5.58,5.58,0,0,1,5.59-5.58h0"/><path id="r4C16" class="cls-9" d="M60.9,22.3h0a5.59,5.59,0,0,1,5.59,5.58h0a5.59,5.59,0,0,1-5.59,5.59h0a5.59,5.59,0,0,1-5.59-5.59h0A5.58,5.58,0,0,1,60.9,22.3h0"/><path id="r4C19" class="cls-9" d="M94.16,22.3h0a5.59,5.59,0,0,1,5.59,5.58h0a5.59,5.59,0,0,1-5.59,5.59h0a5.59,5.59,0,0,1-5.59-5.59h0a5.58,5.58,0,0,1,5.59-5.58"/><path id="r5C11" class="cls-9" d="M5.46,33.38h5.59V44.56H5.46A5.58,5.58,0,0,1-.12,39h0a5.59,5.59,0,0,1,5.58-5.59"/><path id="r5C12" class="cls-9" d="M11,33.38H22.14V44.56H11V33.38"/><path id="r5C13" class="cls-9" d="M22.05,33.38H33.22V44.56H22.05V33.38"/><path id="r5C14" class="cls-9" d="M33.14,33.38h5.58A5.59,5.59,0,0,1,44.31,39h0a5.59,5.59,0,0,1-5.59,5.59H33.14V33.38"/><path id="r5C17" class="cls-9" d="M72,33.38h5.59V44.56H72A5.58,5.58,0,0,1,66.4,39h0A5.59,5.59,0,0,1,72,33.38"/><path id="r5C18" class="cls-9" d="M77.48,33.38H88.66V44.56H77.48V33.38"/><path id="r5C19" class="cls-9" d="M88.57,33.38H99.75V44.56H88.57V33.38"/><path id="r6C12" class="cls-9" d="M16.55,44.47h0a5.59,5.59,0,0,1,5.59,5.59h0a5.59,5.59,0,0,1-5.59,5.59h0A5.59,5.59,0,0,1,11,50.06h0a5.59,5.59,0,0,1,5.59-5.59"/><path id="r6C14" class="cls-9" d="M38.72,44.47h0a5.59,5.59,0,0,1,5.59,5.59h0a5.59,5.59,0,0,1-5.59,5.59h0a5.59,5.59,0,0,1-5.58-5.59h0a5.58,5.58,0,0,1,5.58-5.59"/><path id="r6C16" class="cls-9" d="M60.9,44.47h0a5.59,5.59,0,0,1,5.59,5.59h0a5.6,5.6,0,0,1-5.59,5.59h0a5.59,5.59,0,0,1-5.59-5.59h0a5.59,5.59,0,0,1,5.59-5.59h0"/><path id="r6C18" class="cls-9" d="M83.07,44.47h0a5.59,5.59,0,0,1,5.59,5.59h0a5.59,5.59,0,0,1-5.59,5.59h0a5.59,5.59,0,0,1-5.59-5.59h0a5.59,5.59,0,0,1,5.59-5.59"/><path id="r7C12" class="cls-9" d="M16.55,55.56h0a5.58,5.58,0,0,1,5.59,5.58h0a5.59,5.59,0,0,1-5.59,5.59h0A5.59,5.59,0,0,1,11,61.14h0a5.58,5.58,0,0,1,5.59-5.58"/><path id="r7C15" class="cls-9" d="M49.81,55.56H55.4V66.73H49.81a5.59,5.59,0,0,1-5.59-5.59h0a5.58,5.58,0,0,1,5.59-5.58"/><path id="r7C16" class="cls-9" d="M55.31,55.56H60.9a5.59,5.59,0,0,1,5.59,5.58h0a5.59,5.59,0,0,1-5.59,5.59H55.31V55.56"/><path id="r7C19" class="cls-9" d="M94.16,55.56h5.59V66.73H94.16a5.59,5.59,0,0,1-5.59-5.59h0a5.58,5.58,0,0,1,5.59-5.58"/><path id="r8C11" class="cls-9" d="M-.12,66.64H11.05V77.82H-.12V66.64"/><path id="r8C12" class="cls-9" d="M11,66.64H22.14V77.82H11V66.64"/><path id="r8C13" class="cls-9" d="M22.05,66.64H33.22V77.82H22.05V66.64"/><path id="r8C14" class="cls-9" d="M33.14,66.64h5.58a5.59,5.59,0,0,1,5.59,5.59h0a5.59,5.59,0,0,1-5.59,5.59H33.14V66.64"/><path id="r8C18" class="cls-9" d="M83.07,66.64h5.59V77.82H83.07a5.59,5.59,0,0,1-5.59-5.59h0a5.59,5.59,0,0,1,5.59-5.59h0"/><path id="r8C19" class="cls-9" d="M88.57,66.64h5.59a5.6,5.6,0,0,1,5.59,5.59h0a5.59,5.59,0,0,1-5.59,5.59H88.57V66.64"/><path id="r9C11" class="cls-9" d="M5.46,77.73h5.59V88.91H5.46A5.59,5.59,0,0,1-.12,83.32h0a5.58,5.58,0,0,1,5.58-5.59"/><path id="r9C12" class="cls-9" d="M11,77.73h5.59a5.59,5.59,0,0,1,5.59,5.59h0a5.59,5.59,0,0,1-5.59,5.59H11V77.73"/><path id="r9C14" class="cls-9" d="M38.72,77.73h0a5.59,5.59,0,0,1,5.59,5.59h0a5.59,5.59,0,0,1-5.59,5.59h0a5.59,5.59,0,0,1-5.58-5.59h0a5.58,5.58,0,0,1,5.58-5.59"/><path id="r9C17" class="cls-9" d="M72,77.73h5.59V88.91H72a5.59,5.59,0,0,1-5.58-5.59h0A5.58,5.58,0,0,1,72,77.73"/><path id="r9C18" class="cls-9" d="M77.48,77.73H88.66V88.91H77.48V77.73"/><path id="r9C19" class="cls-9" d="M88.57,77.73H99.75V88.91H88.57V77.73"/><path id="r10C11" class="cls-9" d="M-.12,88.82H11.05V100H-.12V88.82"/><path id="r10C12" class="cls-9" d="M11,88.82H22.14V100H11V88.82"/><path id="r10C13" class="cls-9" d="M22.05,88.82h5.59a5.58,5.58,0,0,1,5.58,5.59h0A5.58,5.58,0,0,1,27.64,100H22.05V88.82"/><path id="r10C15" class="cls-9" d="M49.81,88.82h0a5.59,5.59,0,0,1,5.59,5.59h0A5.58,5.58,0,0,1,49.81,100h0a5.58,5.58,0,0,1-5.59-5.58h0a5.59,5.59,0,0,1,5.59-5.59"/><path id="r10C18" class="cls-9" d="M83.07,88.82h0a5.59,5.59,0,0,1,5.59,5.59h0A5.58,5.58,0,0,1,83.07,100h0a5.58,5.58,0,0,1-5.59-5.58h0a5.59,5.59,0,0,1,5.59-5.59"/></g></svg>