<svg id="Layer_1" data-name="Layer 1" xmlns="http://www.w3.org/2000/svg" xmlns:xlink="http://www.w3.org/1999/xlink" viewBox="0 0 100 100"><defs><style>.cls-1,.cls-2{fill:none;}.cls-2{clip-path:url(#clip-path);}.cls-3{clip-path:url(#clip-path-2);}.cls-4{clip-path:url(#clip-path-3);}.cls-5{clip-path:url(#clip-path-4);}.cls-6{fill:#054080;fill-rule:evenodd;}</style><clipPath id="clip-path"><polygon class="cls-1" points="-358.06 -138 -356.99 -138 -358.06 -136.94 -358.06 -138"/></clipPath><clipPath id="clip-path-2"><rect class="cls-1" x="0.09" y="0.09" width="99.81" height="99.81"/></clipPath><clipPath id="clip-path-3"><rect class="cls-1" x="-219.91" y="0.09" width="99.81" height="99.81"/></clipPath><clipPath id="clip-path-4"><polygon class="cls-2" points="-360.18 -140.13 -361.25 -140.13 -360.18 -141.19 -360.18 -140.13"/></clipPath></defs><title>Artboard 1 copy 11</title><g class="cls-3"><path id="r8C8" d="M.08,8.41,8.41.08l8.33,8.33L8.41,16.74Z"/><path id="r8C10" d="M33.39,8.41,41.72.08l8.33,8.33-8.33,8.33Z"/><path id="r8C11" d="M50.05,8.41,58.37.08,66.7,8.41l-8.33,8.33Z"/><path id="r8C12" d="M66.7,8.41,75,.08l8.33,8.33L75,16.74Z"/><path id="r8C13" d="M83.36,8.41,91.68.08,100,8.41l-8.33,8.33Z"/><path id="r9C8" d="M.08,25.06l8.33-8.32,8.33,8.32L8.41,33.39Z"/><path id="r9C11" d="M50.05,25.06l8.32-8.32,8.33,8.32-8.33,8.33Z"/><path id="r9C12" d="M66.7,25.06,75,16.74l8.33,8.32L75,33.39Z"/><path id="r10C8" d="M.08,41.72l8.33-8.33,8.33,8.33L8.41,50.05Z"/><path id="r10C10" d="M33.39,41.72l8.33-8.33,8.33,8.33-8.33,8.33Z"/><path id="r10C11" d="M50.05,41.72l8.32-8.33,8.33,8.33-8.33,8.33Z"/><path id="r10C12" d="M66.7,41.72,75,33.39l8.33,8.33L75,50.05Z"/><path id="r10C13" d="M83.36,41.72l8.32-8.33L100,41.72l-8.33,8.33Z"/><path id="r11C8" d="M.08,58.37l8.33-8.32,8.33,8.32L8.41,66.7Z"/><path id="r11C10" d="M33.39,58.37l8.33-8.32,8.33,8.32L41.72,66.7Z"/><path id="r11C12" d="M66.7,58.37,75,50.05l8.33,8.32L75,66.7Z"/><path id="r11C13" d="M83.36,58.37l8.32-8.32L100,58.37,91.68,66.7Z"/><path id="r12C9" d="M16.74,75l8.32-8.33L33.39,75l-8.33,8.33Z"/><path id="r12C10" d="M33.39,75l8.33-8.33L50.05,75l-8.33,8.33Z"/><path id="r12C11" d="M50.05,75l8.32-8.33L66.7,75l-8.33,8.33Z"/><path id="r12C12" d="M66.7,75,75,66.7,83.36,75,75,83.36Z"/><path id="r12C13" d="M83.36,75l8.32-8.33L100,75l-8.33,8.33Z"/><path id="r13C8" d="M.08,91.68l8.33-8.32,8.33,8.32L8.41,100Z"/><path id="r13C10" d="M33.39,91.68l8.33-8.32,8.33,8.32L41.72,100Z"/><path id="r13C12" d="M66.7,91.68,75,83.36l8.33,8.32L75,100Z"/><path id="r13C13" d="M83.36,91.68l8.32-8.32L100,91.68,91.68,100Z"/></g><g class="cls-4"><g class="cls-5"><path id="SvgjsPath1004" class="cls-6" d="M-344.24-91.65a32.41,32.41,0,0,1,32.54-32.54H187.2V407.26H-344.24Z"/></g></g></svg>