<svg id="Layer_1" data-name="Layer 1" xmlns="http://www.w3.org/2000/svg" xmlns:xlink="http://www.w3.org/1999/xlink" viewBox="0 0 100 100"><defs><style>.cls-1,.cls-2{fill:none;}.cls-2{clip-path:url(#clip-path);}.cls-3{clip-path:url(#clip-path-2);}.cls-4,.cls-7{fill-rule:evenodd;}.cls-5{clip-path:url(#clip-path-3);}.cls-6{clip-path:url(#clip-path-4);}.cls-7{fill:#054080;}</style><clipPath id="clip-path"><polygon class="cls-1" points="-27.36 -35.33 -26.66 -35.33 -27.36 -34.63 -27.36 -35.33"/></clipPath><clipPath id="clip-path-2"><rect class="cls-1" x="0.09" y="0.09" width="99.81" height="99.81"/></clipPath><clipPath id="clip-path-3"><rect class="cls-1" x="108.09" y="0.09" width="99.81" height="99.81"/></clipPath><clipPath id="clip-path-4"><polygon class="cls-2" points="-28.76 -36.73 -29.45 -36.73 -28.76 -37.43 -28.76 -36.73"/></clipPath></defs><title>Artboard 1 copy 6</title><g class="cls-3"><path id="r10C18" class="cls-4" d="M11.14.06H22.32V11.24H11.14V.06"/><path id="r10C21" class="cls-4" d="M50,.06h0a5.59,5.59,0,0,1,5.59,5.59v5.59H44.41V5.65A5.59,5.59,0,0,1,50,.06"/><path id="r10C22" class="cls-4" d="M55.51.06H66.69V5.65a5.6,5.6,0,0,1-5.59,5.59h0a5.59,5.59,0,0,1-5.59-5.59V.06"/><path id="r10C25" class="cls-4" d="M88.78.06H100V5.65a5.6,5.6,0,0,1-5.6,5.59h0a5.6,5.6,0,0,1-5.59-5.59V.06"/><path id="r11C17" class="cls-4" d="M5.63,11.15h0a5.59,5.59,0,0,1,5.59,5.59v5.59H0V16.74a5.59,5.59,0,0,1,5.59-5.59"/><path id="r11C18" class="cls-4" d="M11.14,11.15H22.32v5.59a5.59,5.59,0,0,1-5.59,5.59h0a5.59,5.59,0,0,1-5.59-5.59h0V11.15"/><path id="r11C20" class="cls-4" d="M38.91,11.15h0a5.59,5.59,0,0,1,5.59,5.59h0a5.59,5.59,0,0,1-5.59,5.59h0a5.59,5.59,0,0,1-5.59-5.59h0a5.59,5.59,0,0,1,5.59-5.59"/><path id="r11C21" class="cls-4" d="M44.41,11.15H55.59V22.33H44.41V11.15"/><path id="r11C23" class="cls-4" d="M72.19,11.15h0a5.59,5.59,0,0,1,5.59,5.59h0a5.59,5.59,0,0,1-5.59,5.59h0a5.59,5.59,0,0,1-5.59-5.59h0a5.59,5.59,0,0,1,5.59-5.59h0"/><path id="r12C17" class="cls-4" d="M0,22.24H11.22v5.59a5.59,5.59,0,0,1-5.59,5.59h0A5.59,5.59,0,0,1,0,27.83V22.24"/><path id="r12C19" class="cls-4" d="M27.82,22.24h0a5.59,5.59,0,0,1,5.59,5.59h0v5.59H22.23V27.83a5.59,5.59,0,0,1,5.59-5.59"/><path id="r12C21" class="cls-4" d="M44.41,22.24H55.59v5.59A5.59,5.59,0,0,1,50,33.42h0a5.59,5.59,0,0,1-5.59-5.59V22.24"/><path id="r12C25" class="cls-4" d="M94.37,22.24h0a5.6,5.6,0,0,1,5.6,5.59v5.59H88.78V27.83a5.59,5.59,0,0,1,5.59-5.59"/><path id="r13C18" class="cls-4" d="M16.73,33.33h0a5.6,5.6,0,0,1,5.59,5.59h0a5.59,5.59,0,0,1-5.59,5.59h0a5.59,5.59,0,0,1-5.59-5.59h0a5.59,5.59,0,0,1,5.59-5.59h0"/><path id="r13C19" class="cls-4" d="M22.23,33.33H33.41V44.51H22.23V33.33"/><path id="r13C22" class="cls-4" d="M61.1,33.33h0a5.6,5.6,0,0,1,5.59,5.59h0v5.59H55.51V38.92a5.59,5.59,0,0,1,5.59-5.59h0"/><path id="r13C23" class="cls-4" d="M72.19,33.33h0a5.59,5.59,0,0,1,5.59,5.59h0a5.59,5.59,0,0,1-5.59,5.59h0a5.59,5.59,0,0,1-5.59-5.59h0a5.59,5.59,0,0,1,5.59-5.59h0"/><path id="r13C25" class="cls-4" d="M88.78,33.33H100V44.51H88.78V33.33"/><path id="r14C19" class="cls-4" d="M22.23,44.43H33.41V55.61H22.23V44.43"/><path id="r14C22" class="cls-4" d="M55.51,44.43H66.69V55.61H55.51V44.43"/><path id="r14C24" class="cls-4" d="M83.28,44.43h0A5.59,5.59,0,0,1,88.87,50h0a5.59,5.59,0,0,1-5.59,5.59h0A5.59,5.59,0,0,1,77.69,50h0a5.59,5.59,0,0,1,5.59-5.59"/><path id="r14C25" class="cls-4" d="M88.78,44.43H100V55.61H88.78V44.43"/><path id="r15C19" class="cls-4" d="M22.23,55.52H33.41v5.59a5.59,5.59,0,0,1-5.59,5.59h0a5.59,5.59,0,0,1-5.59-5.59h0V55.52"/><path id="r15C21" class="cls-4" d="M50,55.52h0a5.59,5.59,0,0,1,5.59,5.59h0A5.59,5.59,0,0,1,50,66.7h0a5.59,5.59,0,0,1-5.59-5.59h0A5.59,5.59,0,0,1,50,55.52"/><path id="r15C22" class="cls-4" d="M55.51,55.52H66.69v5.59A5.59,5.59,0,0,1,61.1,66.7h0a5.59,5.59,0,0,1-5.59-5.59h0V55.52"/><path id="r15C25" class="cls-4" d="M88.78,55.52H100V66.7H88.78V55.52"/><path id="r16C17" class="cls-4" d="M5.63,66.61h0a5.59,5.59,0,0,1,5.59,5.59h0v5.59H0V72.2a5.59,5.59,0,0,1,5.59-5.59h0"/><path id="r16C20" class="cls-4" d="M38.91,66.61h0A5.59,5.59,0,0,1,44.5,72.2h0v5.59H33.32V72.2a5.59,5.59,0,0,1,5.59-5.59h0"/><path id="r16C23" class="cls-4" d="M72.19,66.61h0a5.59,5.59,0,0,1,5.59,5.59h0v5.59H66.6V72.2a5.59,5.59,0,0,1,5.59-5.59h0"/><path id="r16C24" class="cls-4" d="M83.28,66.61h0a5.59,5.59,0,0,1,5.59,5.59h0a5.59,5.59,0,0,1-5.59,5.59h0a5.59,5.59,0,0,1-5.59-5.59h0a5.59,5.59,0,0,1,5.59-5.59h0"/><path id="r16C25" class="cls-4" d="M88.78,66.61H100V72.2a5.6,5.6,0,0,1-5.6,5.59h0a5.59,5.59,0,0,1-5.59-5.59V66.61"/><path id="r17C17" class="cls-4" d="M0,77.7H11.22v5.59a5.6,5.6,0,0,1-5.59,5.6h0A5.6,5.6,0,0,1,0,83.29V77.7"/><path id="r17C20" class="cls-4" d="M33.32,77.7H44.5V88.89H33.32V77.7"/><path id="r17C23" class="cls-4" d="M66.6,77.7H77.78V88.89H66.6V77.7"/><path id="r18C18" class="cls-4" d="M16.73,88.8h0a5.59,5.59,0,0,1,5.59,5.59h0A5.59,5.59,0,0,1,16.73,100h0a5.59,5.59,0,0,1-5.59-5.59h0a5.59,5.59,0,0,1,5.59-5.59"/><path id="r18C20" class="cls-4" d="M33.32,88.8H44.5V100H33.32V88.8"/><path id="r18C22" class="cls-4" d="M61.1,88.8h0a5.59,5.59,0,0,1,5.59,5.59V100H55.51V94.39A5.59,5.59,0,0,1,61.1,88.8"/><path id="r18C23" class="cls-4" d="M66.6,88.8H77.78v5.59A5.59,5.59,0,0,1,72.19,100h0a5.59,5.59,0,0,1-5.59-5.59h0V88.8"/></g><g class="cls-5"><g class="cls-6"><path id="SvgjsPath1004" class="cls-7" d="M-18.27-4.85A21.31,21.31,0,0,1,3.12-26.24H331.2V323.23H-18.27Z"/></g></g></svg>