<svg id="Layer_1" data-name="Layer 1" xmlns="http://www.w3.org/2000/svg" xmlns:xlink="http://www.w3.org/1999/xlink" viewBox="0 0 100 100"><defs><style>.cls-1,.cls-2{fill:none;}.cls-2{clip-path:url(#clip-path);}.cls-3{clip-path:url(#clip-path-2);}.cls-4,.cls-7{fill-rule:evenodd;}.cls-5{clip-path:url(#clip-path-3);}.cls-6{clip-path:url(#clip-path-4);}.cls-7{fill:#054080;}</style><clipPath id="clip-path"><polygon class="cls-1" points="-358.06 -28 -356.99 -28 -358.06 -26.94 -358.06 -28"/></clipPath><clipPath id="clip-path-2"><rect class="cls-1" x="0.09" y="0.09" width="99.81" height="99.81"/></clipPath><clipPath id="clip-path-3"><rect class="cls-1" x="-219.91" y="110.09" width="99.81" height="99.81"/></clipPath><clipPath id="clip-path-4"><polygon class="cls-2" points="-360.18 -30.13 -361.25 -30.13 -360.18 -31.19 -360.18 -30.13"/></clipPath></defs><title>Artboard 1 copy 5</title><g class="cls-3"><path id="r5C11" class="cls-4" d="M13,0h0V13h0A13,13,0,0,1,0,0V13A13,13,0,0,1,13,0Z"/><path id="r5C12" class="cls-4" d="M12.4,0h13V13h-13Z"/><path id="r5C13" class="cls-4" d="M24.8,0h13V13h-13Z"/><path id="r5C14" class="cls-4" d="M37.2,0h0a13,13,0,0,1,13,13h-13Z"/><path id="r5C17" class="cls-4" d="M87.43,0h0V13h0a13,13,0,0,1-13-13V13A13,13,0,0,1,87.43,0Z"/><path id="r5C18" class="cls-4" d="M86.81,0h13V13h-13Z"/><path id="r6C12" class="cls-4" d="M12.4,12.42h13v13h-13Z"/><path id="r6C14" class="cls-4" d="M37.2,12.42h13a13,13,0,0,1-13,13h13a13,13,0,0,1-13-13Z"/><path id="r6C16" class="cls-4" d="M75,12.42H62a13,13,0,0,1,13,13H62a13,13,0,0,1,13-13Z"/><path id="r6C18" class="cls-4" d="M86.81,12.42h13a13,13,0,0,1-13,13h13a13,13,0,0,1-13-13Z"/><path id="r7C12" class="cls-4" d="M12.4,24.84h13v13h-13Z"/><path id="r7C15" class="cls-4" d="M62.63,24.84h0v13h0a13,13,0,0,1-13-13h0v13a13,13,0,0,1,13-13Z"/><path id="r7C16" class="cls-4" d="M62,24.84H75a13,13,0,0,1-13,13h0Z"/><path id="r8C11" class="cls-4" d="M0,37.26H13v13H0Z"/><path id="r8C12" class="cls-4" d="M12.4,37.26h13v13h-13Z"/><path id="r8C13" class="cls-4" d="M24.8,37.26h13v13h-13Z"/><path id="r8C14" class="cls-4" d="M37.2,37.26h0a13,13,0,0,1,13,13h-13Z"/><path id="r8C18" class="cls-4" d="M99.83,37.26h0v13h-13a13,13,0,0,1,13-13Z"/><path id="r9C11" class="cls-4" d="M0,49.68H13v13H0Z"/><path id="r9C12" class="cls-4" d="M12.4,49.68h13v13h-13Z"/><path id="r9C14" class="cls-4" d="M37.2,49.68h13a13,13,0,0,1-13,13h13a13,13,0,0,1-13-13Z"/><path id="r9C17" class="cls-4" d="M87.43,49.68h0v13h0a13,13,0,0,1-13-13v13A13,13,0,0,1,87.43,49.68Z"/><path id="r9C18" class="cls-4" d="M86.81,49.68h13v13h-13Z"/><path id="r10C11" class="cls-4" d="M0,62.1H13v13H0Z"/><path id="r10C12" class="cls-4" d="M12.4,62.1h13v13h-13Z"/><path id="r10C13" class="cls-4" d="M24.8,62.1h0a13,13,0,0,1,13,13h-13Z"/><path id="r10C15" class="cls-4" d="M62.63,62.1h-13a13,13,0,0,1,13,13h0v-13a13,13,0,0,1-13,13h13a13,13,0,0,1-13-13h0v13a13,13,0,0,1,13-13Z"/><path id="r10C18" class="cls-4" d="M86.81,62.1h13v13h-13Z"/><path id="r11C12" class="cls-4" d="M12.4,74.52h13v13h-13Z"/><path id="r11C13" class="cls-4" d="M24.8,74.52h13v13h-13Z"/><path id="r11C14" class="cls-4" d="M37.2,74.52h0a13,13,0,0,1,13,13h-13Z"/><path id="r11C17" class="cls-4" d="M87.43,74.52h0v13h-13A13,13,0,0,1,87.43,74.52Z"/><path id="r11C18" class="cls-4" d="M86.81,74.52h13a13,13,0,0,1-13,13h0Z"/><path id="r12C11" class="cls-4" d="M0,86.94H13v13H0Z"/><path id="r12C12" class="cls-4" d="M12.4,86.94h13v13h-13Z"/><path id="r12C13" class="cls-4" d="M24.8,86.94h13v13h-13Z"/><path id="r12C14" class="cls-4" d="M37.2,86.94h13v13h-13Z"/><path id="r12C15" class="cls-4" d="M49.61,86.94h0a13,13,0,0,1,13,13h0v-13a13,13,0,0,1-13,13h0Z"/><path id="r12C17" class="cls-4" d="M74.41,86.94h13a13,13,0,0,1-13,13h13a13,13,0,0,1-13-13Z"/></g><g class="cls-5"><g class="cls-6"><path id="SvgjsPath1004" class="cls-7" d="M-344.24,18.35A32.41,32.41,0,0,1-311.7-14.19H187.2V517.26H-344.24Z"/></g></g></svg>