<svg id="Layer_1" data-name="Layer 1" xmlns="http://www.w3.org/2000/svg" xmlns:xlink="http://www.w3.org/1999/xlink" viewBox="0 0 100 100"><defs><style>.cls-1,.cls-2,.cls-3{fill:none;}.cls-2{clip-path:url(#clip-path);}.cls-3{clip-path:url(#clip-path-2);}.cls-4{clip-path:url(#clip-path-3);}.cls-5,.cls-8{fill-rule:evenodd;}.cls-6{clip-path:url(#clip-path-4);}.cls-7{clip-path:url(#clip-path-5);}.cls-8{fill:#054080;}.cls-9{clip-path:url(#clip-path-6);}.cls-10{clip-path:url(#clip-path-7);}</style><clipPath id="clip-path"><polygon class="cls-1" points="-45.43 -79.64 -44.64 -79.64 -45.43 -78.85 -45.43 -79.64"/></clipPath><clipPath id="clip-path-2"><polygon class="cls-1" points="-248.06 -28 -246.99 -28 -248.06 -26.94 -248.06 -28"/></clipPath><clipPath id="clip-path-3"><rect class="cls-1" width="100" height="100"/></clipPath><clipPath id="clip-path-4"><rect class="cls-1" x="110.09" y="0.09" width="99.81" height="99.81"/></clipPath><clipPath id="clip-path-5"><polygon class="cls-2" points="-47.02 -81.23 -47.82 -81.23 -47.02 -82.03 -47.02 -81.23"/></clipPath><clipPath id="clip-path-6"><rect class="cls-1" x="-109.91" y="110.09" width="99.81" height="99.81"/></clipPath><clipPath id="clip-path-7"><polygon class="cls-3" points="-250.18 -30.13 -251.25 -30.13 -250.18 -31.19 -250.18 -30.13"/></clipPath></defs><title>Artboard 1 copy 4</title><g class="cls-4"><path id="r11C13" class="cls-5" d="M-.16-.95h11.7v11.7H-.16Z"/><path id="r11C14" class="cls-5" d="M11-.95h5.85A5.85,5.85,0,0,1,22.69,4.9h0v5.85H11Z"/><path id="r11C17" class="cls-5" d="M50.26-.95h5.85v11.7H44.41V4.9A5.85,5.85,0,0,1,50.26-.95Z"/><path id="r11C18" class="cls-5" d="M55.55-.95h11.7V4.9a5.85,5.85,0,0,1-5.85,5.85H55.55Z"/><path id="r11C20" class="cls-5" d="M83.69-.95h5.85v11.7H83.69A5.85,5.85,0,0,1,77.84,4.9h0A5.85,5.85,0,0,1,83.69-.95Z"/><path id="r11C21" class="cls-5" d="M89-.95h11.7v11.7H89Z"/><path id="r12C13" class="cls-5" d="M-.16,10.19h11.7v11.7H-.16Z"/><path id="r12C14" class="cls-5" d="M11,10.19h11.7v11.7H11Z"/><path id="r12C15" class="cls-5" d="M22.13,10.19H28A5.85,5.85,0,0,1,33.83,16h0A5.85,5.85,0,0,1,28,21.89H22.13Z"/><path id="r12C17" class="cls-5" d="M44.41,10.19h11.7V16a5.85,5.85,0,0,1-5.85,5.85h0A5.85,5.85,0,0,1,44.41,16Z"/><path id="r12C19" class="cls-5" d="M72.54,10.19h0A5.85,5.85,0,0,1,78.39,16v5.85H66.7V16a5.84,5.84,0,0,1,5.84-5.85Z"/><path id="r12C21" class="cls-5" d="M89,10.19h11.7V16a5.85,5.85,0,0,1-5.85,5.85h0A5.85,5.85,0,0,1,89,16Z"/><path id="r13C13" class="cls-5" d="M-.16,21.33h11.7V33H-.16Z"/><path id="r13C18" class="cls-5" d="M61.4,21.33h5.85V33H61.4a5.85,5.85,0,0,1-5.85-5.85h0A5.85,5.85,0,0,1,61.4,21.33Z"/><path id="r13C19" class="cls-5" d="M66.7,21.33H78.39V33H66.7Z"/><path id="r14C13" class="cls-5" d="M-.16,32.47h11.7v11.7H5.69A5.85,5.85,0,0,1-.16,38.32h0Z"/><path id="r14C14" class="cls-5" d="M11,32.47h5.85a5.85,5.85,0,0,1,5.85,5.85h0v5.85H11Z"/><path id="r14C16" class="cls-5" d="M39.12,32.47h0A5.85,5.85,0,0,1,45,38.32v5.85H33.27V38.32a5.85,5.85,0,0,1,5.85-5.85Z"/><path id="r14C19" class="cls-5" d="M66.7,32.47H78.39v11.7H66.7Z"/><path id="r15C14" class="cls-5" d="M11,43.62h11.7v5.84a5.84,5.84,0,0,1-5.85,5.85h0A5.84,5.84,0,0,1,11,49.46h0Z"/><path id="r15C16" class="cls-5" d="M33.27,43.62H45v5.84a5.84,5.84,0,0,1-5.85,5.85h0a5.84,5.84,0,0,1-5.85-5.85h0Z"/><path id="r15C19" class="cls-5" d="M66.7,43.62H78.39v5.84a5.84,5.84,0,0,1-5.85,5.85h0a5.84,5.84,0,0,1-5.84-5.85h0Z"/><path id="r15C21" class="cls-5" d="M94.83,43.62h5.85V55.31H94.83A5.84,5.84,0,0,1,89,49.46h0A5.84,5.84,0,0,1,94.83,43.62Z"/><path id="r16C15" class="cls-5" d="M28,54.76h0a5.85,5.85,0,0,1,5.85,5.85h0v5.85H22.13V60.61A5.85,5.85,0,0,1,28,54.76Z"/><path id="r16C17" class="cls-5" d="M50.26,54.76h0a5.85,5.85,0,0,1,5.85,5.85h0v5.85H44.41V60.61a5.85,5.85,0,0,1,5.85-5.85Z"/><path id="r16C20" class="cls-5" d="M83.69,54.76h0a5.85,5.85,0,0,1,5.85,5.85h0v5.85H77.84V60.61a5.85,5.85,0,0,1,5.85-5.85Z"/><path id="r17C13" class="cls-5" d="M-.16,65.9H5.69a5.85,5.85,0,0,1,5.85,5.85h0A5.85,5.85,0,0,1,5.69,77.6H-.16Z"/><path id="r17C15" class="cls-5" d="M22.13,65.9h11.7v5.85A5.85,5.85,0,0,1,28,77.6h0a5.85,5.85,0,0,1-5.85-5.85Z"/><path id="r17C17" class="cls-5" d="M44.41,65.9h11.7v5.85a5.85,5.85,0,0,1-5.85,5.85h0a5.85,5.85,0,0,1-5.85-5.85Z"/><path id="r17C20" class="cls-5" d="M77.84,65.9h11.7V77.6H77.84Z"/><path id="r18C14" class="cls-5" d="M16.84,77h0a5.85,5.85,0,0,1,5.85,5.85h0v5.85H11V82.89A5.85,5.85,0,0,1,16.84,77Z"/><path id="r18C16" class="cls-5" d="M39.12,77h0A5.85,5.85,0,0,1,45,82.89v5.85H33.27V82.89A5.85,5.85,0,0,1,39.12,77Z"/><path id="r18C18" class="cls-5" d="M61.4,77h0a5.85,5.85,0,0,1,5.85,5.85h0a5.85,5.85,0,0,1-5.85,5.85h0a5.85,5.85,0,0,1-5.85-5.85h0A5.85,5.85,0,0,1,61.4,77Z"/><path id="r18C20" class="cls-5" d="M77.84,77h11.7v11.7H77.84Z"/><path id="r19C13" class="cls-5" d="M-.16,88.18h11.7v11.7H-.16Z"/><path id="r19C14" class="cls-5" d="M11,88.18h11.7v11.7H11Z"/><path id="r19C16" class="cls-5" d="M33.27,88.18H45V94a5.85,5.85,0,0,1-5.85,5.85h0A5.85,5.85,0,0,1,33.27,94h0Z"/><path id="r19C19" class="cls-5" d="M72.54,88.18h5.85v11.7H66.7V94a5.84,5.84,0,0,1,5.84-5.85Z"/><path id="r19C20" class="cls-5" d="M77.84,88.18h11.7v11.7H77.84Z"/><path id="r19C21" class="cls-5" d="M89,88.18h11.7v11.7H89Z"/></g><g class="cls-6"><g class="cls-7"><path id="SvgjsPath1004" class="cls-8" d="M42-36A44.12,44.12,0,0,1-2.1,8.11,44.12,44.12,0,0,1-46.23-36,44.12,44.12,0,0,1-2.1-80.13,44.12,44.12,0,0,1,42-36ZM-2.1-70.33A34.32,34.32,0,0,0-36.42-36,34.32,34.32,0,0,0-2.1-1.69,34.33,34.33,0,0,0,32.22-36,34.33,34.33,0,0,0-2.1-70.33Z"/></g></g><g class="cls-9"><g class="cls-10"><path id="SvgjsPath1004-2" data-name="SvgjsPath1004" class="cls-8" d="M-234.24,18.35A32.41,32.41,0,0,1-201.7-14.19H297.2V517.26H-234.24Z"/></g><path id="r6C12" class="cls-5" d="M-25.55,125.24V77.65A31.88,31.88,0,0,0,6.34,109.53H-41.25A31.88,31.88,0,0,0-9.36,77.65v47.59A31.89,31.89,0,0,0-41.25,93.35H6.34A31.89,31.89,0,0,0-25.55,125.24Z"/><path id="r7C12" class="cls-5" d="M-25.55,142.1V94.51A31.88,31.88,0,0,0,6.34,126.39H-41.25A31.88,31.88,0,0,0-9.36,94.51V142.1a31.89,31.89,0,0,0-31.89-31.89H6.34A31.89,31.89,0,0,0-25.55,142.1Z"/></g></svg>