<svg id="Layer_1" data-name="Layer 1" xmlns="http://www.w3.org/2000/svg" xmlns:xlink="http://www.w3.org/1999/xlink" viewBox="0 0 100 100"><defs><style>.cls-1,.cls-2{fill:none;}.cls-2{clip-path:url(#clip-path);}.cls-3{clip-path:url(#clip-path-2);}.cls-4{clip-path:url(#clip-path-3);}.cls-5{clip-path:url(#clip-path-4);}.cls-6{fill:#054080;fill-rule:evenodd;}</style><clipPath id="clip-path"><polygon class="cls-1" points="-27.36 74.67 -26.66 74.67 -27.36 75.37 -27.36 74.67"/></clipPath><clipPath id="clip-path-2"><rect class="cls-1" x="0.09" y="0.09" width="99.81" height="99.81"/></clipPath><clipPath id="clip-path-3"><rect class="cls-1" x="108.09" y="110.09" width="99.81" height="99.81"/></clipPath><clipPath id="clip-path-4"><polygon class="cls-2" points="-28.76 73.27 -29.45 73.27 -28.76 72.57 -28.76 73.27"/></clipPath></defs><title>Artboard 1</title><g class="cls-3"><rect x="18.57" y="2.39" width="12.34" height="12"/><rect x="35.35" y="2.39" width="12.34" height="12"/><rect x="1.79" y="19.07" width="12.34" height="12"/><rect x="18.62" y="19.07" width="12.34" height="12"/><rect x="35.44" y="19.07" width="12.34" height="12"/><rect x="52.27" y="19.07" width="12.34" height="12"/><rect x="52.31" y="35.38" width="12.34" height="12"/><rect x="85.87" y="35.38" width="12.34" height="12"/><rect x="69.09" y="19.07" width="12.34" height="12"/><rect x="1.79" y="52.62" width="12.34" height="12"/><rect x="18.62" y="52.62" width="12.34" height="12"/><rect x="85.87" y="52.62" width="12.34" height="12"/><rect x="1.79" y="85.62" width="12.34" height="12"/><rect x="35.44" y="85.62" width="12.34" height="12"/><rect x="52.27" y="85.62" width="12.34" height="12"/><rect x="69.09" y="85.62" width="12.34" height="12"/><rect x="1.79" y="69.12" width="12.34" height="12"/><rect x="18.62" y="69.12" width="12.34" height="12"/><rect x="85.87" y="69.12" width="12.34" height="12"/><rect x="69.09" y="69.12" width="12.34" height="12"/></g><g class="cls-4"><g class="cls-5"><path id="SvgjsPath1004" class="cls-6" d="M-18.27,105.15A21.31,21.31,0,0,1,3.12,83.76H331.2V433.23H-18.27Z"/></g></g></svg>