<svg id="Layer_1" data-name="Layer 1" xmlns="http://www.w3.org/2000/svg" xmlns:xlink="http://www.w3.org/1999/xlink" viewBox="0 0 100 100"><defs><style>.cls-1,.cls-2,.cls-3{fill:none;}.cls-2{clip-path:url(#clip-path);}.cls-3{clip-path:url(#clip-path-2);}.cls-4{clip-path:url(#clip-path-3);}.cls-5,.cls-8{fill-rule:evenodd;}.cls-6{clip-path:url(#clip-path-4);}.cls-7{clip-path:url(#clip-path-5);}.cls-8{fill:#054080;}.cls-9{clip-path:url(#clip-path-6);}.cls-10{clip-path:url(#clip-path-7);}</style><clipPath id="clip-path"><polygon class="cls-1" points="-29.06 -28 -27.99 -28 -29.06 -26.94 -29.06 -28"/></clipPath><clipPath id="clip-path-2"><polygon class="cls-1" points="-245.36 74.67 -244.66 74.67 -245.36 75.37 -245.36 74.67"/></clipPath><clipPath id="clip-path-3"><rect class="cls-1" x="0.09" y="0.09" width="99.81" height="99.81"/></clipPath><clipPath id="clip-path-4"><rect class="cls-1" x="109.09" y="110.09" width="99.81" height="99.81"/></clipPath><clipPath id="clip-path-5"><polygon class="cls-2" points="-31.18 -30.13 -32.24 -30.13 -31.18 -31.19 -31.18 -30.13"/></clipPath><clipPath id="clip-path-6"><rect class="cls-1" x="-109.91" y="110.09" width="99.81" height="99.81"/></clipPath><clipPath id="clip-path-7"><polygon class="cls-3" points="-246.76 73.27 -247.46 73.27 -246.76 72.57 -246.76 73.27"/></clipPath></defs><title>Artboard 1 copy 2</title><g class="cls-4"><path id="r7C15" class="cls-5" d="M18.12,1.74a5.6,5.6,0,0,0,5.6,5.6h0a5.6,5.6,0,0,0-5.6,5.6h0a5.6,5.6,0,0,0-5.59-5.6A5.59,5.59,0,0,0,18.12,1.74Z"/><path id="r7C16" class="cls-5" d="M28.78,1.74a5.6,5.6,0,0,0,5.6,5.6,5.6,5.6,0,0,0-5.6,5.6,5.6,5.6,0,0,0-5.59-5.6h0a5.59,5.59,0,0,0,5.59-5.6Z"/><path id="r7C19" class="cls-5" d="M60.76,1.74a5.6,5.6,0,0,0,5.6,5.6,5.6,5.6,0,0,0-5.6,5.6,5.6,5.6,0,0,0-5.59-5.6h0a5.59,5.59,0,0,0,5.59-5.6Z"/><path id="r7C20" class="cls-5" d="M71.42,1.74A5.6,5.6,0,0,0,77,7.34a5.6,5.6,0,0,0-5.6,5.6,5.6,5.6,0,0,0-5.6-5.6A5.6,5.6,0,0,0,71.42,1.74Z"/><path id="r8C14" class="cls-5" d="M7.46,12.4a5.6,5.6,0,0,0,5.6,5.6h0a5.6,5.6,0,0,0-5.6,5.6h0A5.6,5.6,0,0,0,1.87,18,5.6,5.6,0,0,0,7.46,12.4Z"/><path id="r8C18" class="cls-5" d="M50.1,12.4A5.6,5.6,0,0,0,55.7,18h0a5.6,5.6,0,0,0-5.6,5.6h0A5.6,5.6,0,0,0,44.51,18,5.6,5.6,0,0,0,50.1,12.4Z"/><path id="r8C19" class="cls-5" d="M60.76,12.4a5.6,5.6,0,0,0,5.6,5.6,5.6,5.6,0,0,0-5.6,5.6A5.6,5.6,0,0,0,55.17,18h0a5.6,5.6,0,0,0,5.59-5.6Z"/><path id="r8C21" class="cls-5" d="M82.08,12.4a5.6,5.6,0,0,0,5.6,5.6,5.6,5.6,0,0,0-5.6,5.6,5.6,5.6,0,0,0-5.6-5.6A5.6,5.6,0,0,0,82.08,12.4Z"/><path id="r8C22" class="cls-5" d="M92.74,12.4a5.6,5.6,0,0,0,5.6,5.6h0a5.6,5.6,0,0,0-5.6,5.6h0a5.6,5.6,0,0,0-5.6-5.6A5.6,5.6,0,0,0,92.74,12.4Z"/><path id="r9C14" class="cls-5" d="M7.46,23.06a5.6,5.6,0,0,0,5.6,5.6h0a5.6,5.6,0,0,0-5.6,5.6h0a5.59,5.59,0,0,0-5.59-5.6A5.6,5.6,0,0,0,7.46,23.06Z"/><path id="r9C17" class="cls-5" d="M39.44,23.06a5.6,5.6,0,0,0,5.6,5.6,5.6,5.6,0,0,0-5.6,5.6,5.59,5.59,0,0,0-5.59-5.6A5.6,5.6,0,0,0,39.44,23.06Z"/><path id="r9C18" class="cls-5" d="M50.1,23.06a5.6,5.6,0,0,0,5.6,5.6h0a5.6,5.6,0,0,0-5.6,5.6h0a5.59,5.59,0,0,0-5.59-5.6A5.6,5.6,0,0,0,50.1,23.06Z"/><path id="r9C19" class="cls-5" d="M60.76,23.06a5.6,5.6,0,0,0,5.6,5.6,5.6,5.6,0,0,0-5.6,5.6,5.59,5.59,0,0,0-5.59-5.6h0a5.6,5.6,0,0,0,5.59-5.6Z"/><path id="r9C20" class="cls-5" d="M71.42,23.06a5.6,5.6,0,0,0,5.6,5.6,5.6,5.6,0,0,0-5.6,5.6,5.6,5.6,0,0,0-5.6-5.6A5.6,5.6,0,0,0,71.42,23.06Z"/><path id="r9C22" class="cls-5" d="M92.74,23.06a5.6,5.6,0,0,0,5.6,5.6h0a5.59,5.59,0,0,0-5.6,5.6h0a5.6,5.6,0,0,0-5.6-5.6A5.6,5.6,0,0,0,92.74,23.06Z"/><path id="r10C15" class="cls-5" d="M18.12,33.72a5.6,5.6,0,0,0,5.6,5.6h0a5.6,5.6,0,0,0-5.6,5.59h0a5.59,5.59,0,0,0-5.59-5.59A5.6,5.6,0,0,0,18.12,33.72Z"/><path id="r10C18" class="cls-5" d="M50.1,33.72a5.6,5.6,0,0,0,5.6,5.6h0a5.6,5.6,0,0,0-5.6,5.59h0a5.59,5.59,0,0,0-5.59-5.59A5.6,5.6,0,0,0,50.1,33.72Z"/><path id="r10C21" class="cls-5" d="M82.08,33.72a5.6,5.6,0,0,0,5.6,5.6,5.6,5.6,0,0,0-5.6,5.59,5.6,5.6,0,0,0-5.6-5.59A5.6,5.6,0,0,0,82.08,33.72Z"/><path id="r10C22" class="cls-5" d="M92.74,33.72a5.6,5.6,0,0,0,5.6,5.6h0a5.59,5.59,0,0,0-5.6,5.59h0a5.6,5.6,0,0,0-5.6-5.59A5.6,5.6,0,0,0,92.74,33.72Z"/><path id="r11C14" class="cls-5" d="M7.46,44.38a5.6,5.6,0,0,0,5.6,5.6h0a5.6,5.6,0,0,0-5.6,5.59h0A5.59,5.59,0,0,0,1.87,50,5.6,5.6,0,0,0,7.46,44.38Z"/><path id="r11C17" class="cls-5" d="M39.44,44.38A5.6,5.6,0,0,0,45,50a5.6,5.6,0,0,0-5.6,5.59A5.59,5.59,0,0,0,33.85,50,5.6,5.6,0,0,0,39.44,44.38Z"/><path id="r11C18" class="cls-5" d="M50.1,44.38A5.6,5.6,0,0,0,55.7,50h0a5.6,5.6,0,0,0-5.6,5.59h0A5.59,5.59,0,0,0,44.51,50,5.6,5.6,0,0,0,50.1,44.38Z"/><path id="r11C20" class="cls-5" d="M71.42,44.38A5.6,5.6,0,0,0,77,50a5.6,5.6,0,0,0-5.6,5.59A5.6,5.6,0,0,0,65.82,50,5.6,5.6,0,0,0,71.42,44.38Z"/><path id="r11C21" class="cls-5" d="M82.08,44.38a5.6,5.6,0,0,0,5.6,5.6,5.6,5.6,0,0,0-5.6,5.59A5.6,5.6,0,0,0,76.48,50,5.6,5.6,0,0,0,82.08,44.38Z"/><path id="r12C14" class="cls-5" d="M7.46,55a5.6,5.6,0,0,0,5.6,5.6h0a5.6,5.6,0,0,0-5.6,5.59h0a5.59,5.59,0,0,0-5.59-5.59A5.6,5.6,0,0,0,7.46,55Z"/><path id="r12C15" class="cls-5" d="M18.12,55a5.6,5.6,0,0,0,5.6,5.6h0a5.6,5.6,0,0,0-5.6,5.59h0a5.59,5.59,0,0,0-5.59-5.59A5.6,5.6,0,0,0,18.12,55Z"/><path id="r12C17" class="cls-5" d="M39.44,55a5.6,5.6,0,0,0,5.6,5.6,5.6,5.6,0,0,0-5.6,5.59,5.59,5.59,0,0,0-5.59-5.59A5.6,5.6,0,0,0,39.44,55Z"/><path id="r12C19" class="cls-5" d="M60.76,55a5.6,5.6,0,0,0,5.6,5.6,5.6,5.6,0,0,0-5.6,5.59,5.59,5.59,0,0,0-5.59-5.59h0A5.6,5.6,0,0,0,60.76,55Z"/><path id="r12C21" class="cls-5" d="M82.08,55a5.6,5.6,0,0,0,5.6,5.6,5.6,5.6,0,0,0-5.6,5.59,5.6,5.6,0,0,0-5.6-5.59A5.6,5.6,0,0,0,82.08,55Z"/><path id="r13C18" class="cls-5" d="M50.1,65.7a5.6,5.6,0,0,0,5.6,5.6h0a5.6,5.6,0,0,0-5.6,5.59h0a5.59,5.59,0,0,0-5.59-5.59A5.6,5.6,0,0,0,50.1,65.7Z"/><path id="r13C19" class="cls-5" d="M60.76,65.7a5.6,5.6,0,0,0,5.6,5.6,5.6,5.6,0,0,0-5.6,5.59,5.59,5.59,0,0,0-5.59-5.59h0a5.6,5.6,0,0,0,5.59-5.6Z"/><path id="r13C22" class="cls-5" d="M92.74,65.7a5.6,5.6,0,0,0,5.6,5.6h0a5.59,5.59,0,0,0-5.6,5.59h0a5.6,5.6,0,0,0-5.6-5.59A5.6,5.6,0,0,0,92.74,65.7Z"/><path id="r14C14" class="cls-5" d="M7.46,76.36a5.6,5.6,0,0,0,5.6,5.6h0a5.6,5.6,0,0,0-5.6,5.59h0A5.59,5.59,0,0,0,1.87,82h0A5.6,5.6,0,0,0,7.46,76.36Z"/><path id="r14C16" class="cls-5" d="M28.78,76.36a5.6,5.6,0,0,0,5.6,5.6,5.6,5.6,0,0,0-5.6,5.59h0A5.59,5.59,0,0,0,23.19,82h0a5.6,5.6,0,0,0,5.59-5.6Z"/><path id="r14C19" class="cls-5" d="M60.76,76.36a5.6,5.6,0,0,0,5.6,5.6,5.6,5.6,0,0,0-5.6,5.59h0A5.59,5.59,0,0,0,55.17,82h0a5.6,5.6,0,0,0,5.59-5.6Z"/><path id="r14C22" class="cls-5" d="M92.74,76.36a5.6,5.6,0,0,0,5.6,5.6h0a5.59,5.59,0,0,0-5.6,5.59h0A5.6,5.6,0,0,0,87.14,82h0A5.6,5.6,0,0,0,92.74,76.36Z"/><path id="r15C14" class="cls-5" d="M7.46,87a5.6,5.6,0,0,0,5.6,5.59h0a5.6,5.6,0,0,0-5.6,5.6h0a5.6,5.6,0,0,0-5.59-5.6h0A5.59,5.59,0,0,0,7.46,87Z"/><path id="r15C16" class="cls-5" d="M28.78,87a5.6,5.6,0,0,0,5.6,5.59,5.6,5.6,0,0,0-5.6,5.6h0a5.6,5.6,0,0,0-5.59-5.6h0A5.59,5.59,0,0,0,28.78,87Z"/><path id="r15C19" class="cls-5" d="M60.76,87a5.6,5.6,0,0,0,5.6,5.59,5.6,5.6,0,0,0-5.6,5.6h0a5.6,5.6,0,0,0-5.59-5.6h0A5.59,5.59,0,0,0,60.76,87Z"/><path id="r15C21" class="cls-5" d="M82.08,87a5.6,5.6,0,0,0,5.6,5.59,5.6,5.6,0,0,0-5.6,5.6h0a5.6,5.6,0,0,0-5.6-5.6h0A5.6,5.6,0,0,0,82.08,87Z"/><path id="r15C22" class="cls-5" d="M92.74,87a5.59,5.59,0,0,0,5.6,5.59h0a5.6,5.6,0,0,0-5.6,5.6h0a5.6,5.6,0,0,0-5.6-5.6h0A5.6,5.6,0,0,0,92.74,87Z"/></g><g class="cls-6"><g class="cls-7"><path id="SvgjsPath1004" class="cls-8" d="M-15.24,18.35A32.41,32.41,0,0,1,17.3-14.19H516.2V517.26H-15.24Z"/></g></g><g class="cls-9"><g class="cls-10"><path id="SvgjsPath1004-2" data-name="SvgjsPath1004" class="cls-8" d="M-236.27,105.15a21.31,21.31,0,0,1,21.39-21.39H113.2V433.23H-236.27Z"/></g></g></svg>