<svg id="Layer_1" data-name="Layer 1" xmlns="http://www.w3.org/2000/svg" xmlns:xlink="http://www.w3.org/1999/xlink" viewBox="0 0 100 100"><defs><style>.cls-1,.cls-2{fill:none;}.cls-2{clip-path:url(#clip-path);}.cls-3{clip-path:url(#clip-path-2);}.cls-4{clip-path:url(#clip-path-3);}.cls-5{clip-path:url(#clip-path-4);}.cls-6{fill:#054080;}.cls-6,.cls-7{fill-rule:evenodd;}</style><clipPath id="clip-path"><polygon class="cls-1" points="-248.06 -138 -246.99 -138 -248.06 -136.94 -248.06 -138"/></clipPath><clipPath id="clip-path-2"><rect class="cls-1" x="0.09" y="0.09" width="99.81" height="99.81"/></clipPath><clipPath id="clip-path-3"><rect class="cls-1" x="-109.91" y="0.09" width="99.81" height="99.81"/></clipPath><clipPath id="clip-path-4"><polygon class="cls-2" points="-250.18 -140.13 -251.25 -140.13 -250.18 -141.19 -250.18 -140.13"/></clipPath></defs><title>Artboard 1 copy 10</title><g class="cls-3"><circle id="r20C19" cx="21.73" cy="7.73" r="2.22"/><circle id="r20C20" cx="35.81" cy="7.73" r="2.22"/><circle id="r20C21" cx="49.88" cy="7.73" r="6.66"/><circle id="r20C22" cx="63.96" cy="7.73" r="2.22"/><circle id="r20C23" cx="78.04" cy="7.73" r="6.66"/><circle id="r20C24" cx="92.11" cy="7.73" r="6.66"/><circle id="r21C18" cx="7.65" cy="21.81" r="6.66"/><circle id="r21C19" cx="21.73" cy="21.81" r="2.22"/><circle id="r21C20" cx="35.81" cy="21.81" r="6.66"/><circle id="r21C24" cx="92.11" cy="21.81" r="2.22"/><circle id="r22C18" cx="7.65" cy="35.89" r="2.22"/><circle id="r22C19" cx="21.73" cy="35.89" r="6.66"/><circle id="r22C20" cx="35.81" cy="35.89" r="2.22"/><circle id="r22C22" cx="63.96" cy="35.89" r="2.22"/><circle id="r22C24" cx="92.11" cy="35.89" r="2.22"/><circle id="r23C20" cx="35.81" cy="49.96" r="2.22"/><circle id="r23C24" cx="92.11" cy="49.96" r="6.66"/><circle id="r24C18" cx="7.65" cy="64.04" r="2.22"/><circle id="r24C20" cx="35.81" cy="64.04" r="6.66"/><circle id="r24C21" cx="49.88" cy="64.04" r="6.66"/><circle id="r24C22" cx="63.96" cy="64.04" r="2.22"/><circle id="r24C23" cx="78.04" cy="64.04" r="6.66"/><circle id="r24C24" cx="92.11" cy="64.04" r="2.22"/><circle id="r25C18" cx="7.65" cy="78.12" r="2.22"/><circle id="r25C19" cx="21.73" cy="78.12" r="6.66"/><circle id="r25C20" cx="35.81" cy="78.12" r="6.66"/><circle id="r25C21" cx="49.88" cy="78.12" r="6.66"/><circle id="r25C24" cx="92.11" cy="78.12" r="6.66"/><circle id="r26C19" cx="21.73" cy="92.19" r="6.66"/><circle id="r26C21" cx="49.88" cy="92.19" r="2.22"/></g><g class="cls-4"><g class="cls-5"><path id="SvgjsPath1004" class="cls-6" d="M-234.24-91.65a32.41,32.41,0,0,1,32.54-32.54H297.2V407.26H-234.24Z"/></g><path id="r6C12" class="cls-7" d="M-25.55,15.24V-32.35A31.88,31.88,0,0,0,6.34-.47H-41.25A31.88,31.88,0,0,0-9.36-32.35V15.24A31.89,31.89,0,0,0-41.25-16.65H6.34A31.89,31.89,0,0,0-25.55,15.24Z"/><path id="r7C12" class="cls-7" d="M-25.55,32.1V-15.49A31.88,31.88,0,0,0,6.34,16.39H-41.25A31.88,31.88,0,0,0-9.36-15.49V32.1A31.89,31.89,0,0,0-41.25.21H6.34A31.89,31.89,0,0,0-25.55,32.1Z"/><path id="r8C12" class="cls-7" d="M-25.55,49V1.37A31.88,31.88,0,0,0,6.34,33.25H-41.25A31.88,31.88,0,0,0-9.36,1.37h0V49A31.88,31.88,0,0,0-41.25,17.07H6.34A31.88,31.88,0,0,0-25.55,49Z"/><path id="r8C13" class="cls-7" d="M-8.69,49V1.37A31.88,31.88,0,0,0,23.2,33.25H-24.39A31.88,31.88,0,0,0,7.5,1.37h0V49A31.88,31.88,0,0,0-24.39,17.07H23.2A31.88,31.88,0,0,0-8.69,49Z"/><path id="r9C12" class="cls-7" d="M-25.55,65.81V18.23A31.88,31.88,0,0,0,6.34,50.11H-41.25A31.88,31.88,0,0,0-9.36,18.23h0V65.81A31.88,31.88,0,0,0-41.25,33.93H6.34A31.88,31.88,0,0,0-25.55,65.81Z"/><path id="r10C12" class="cls-7" d="M-25.55,82.67V35.09A31.88,31.88,0,0,0,6.34,67H-41.25A31.88,31.88,0,0,0-9.36,35.09V82.67A31.88,31.88,0,0,0-41.25,50.79H6.34A31.88,31.88,0,0,0-25.55,82.67Z"/><path id="r10C13" class="cls-7" d="M-8.69,82.67V35.09A31.88,31.88,0,0,0,23.2,67H-24.39A31.88,31.88,0,0,0,7.5,35.09V82.67A31.88,31.88,0,0,0-24.39,50.79H23.2A31.88,31.88,0,0,0-8.69,82.67Z"/><path id="r11C12" class="cls-7" d="M-25.55,99.53V52A31.88,31.88,0,0,0,6.34,83.83H-41.25A31.88,31.88,0,0,0-9.36,52h0V99.53A31.88,31.88,0,0,0-41.25,67.65H6.34A31.88,31.88,0,0,0-25.55,99.53Z"/><path id="r11C13" class="cls-7" d="M-8.69,99.53V52A31.88,31.88,0,0,0,23.2,83.83H-24.39A31.88,31.88,0,0,0,7.5,52h0V99.53A31.88,31.88,0,0,0-24.39,67.65H23.2A31.88,31.88,0,0,0-8.69,99.53Z"/><path id="r12C12" class="cls-7" d="M-25.55,116.39V68.81A31.88,31.88,0,0,0,6.34,100.69H-41.25A31.88,31.88,0,0,0-9.36,68.81v47.58A31.88,31.88,0,0,0-41.25,84.51H6.34a31.88,31.88,0,0,0-31.89,31.88Z"/><path id="r12C13" class="cls-7" d="M-8.69,116.39V68.81A31.88,31.88,0,0,0,23.2,100.69H-24.39A31.88,31.88,0,0,0,7.5,68.81v47.58A31.88,31.88,0,0,0-24.39,84.51H23.2A31.88,31.88,0,0,0-8.69,116.39Z"/></g></svg>