<svg id="Layer_1" data-name="Layer 1" xmlns="http://www.w3.org/2000/svg" xmlns:xlink="http://www.w3.org/1999/xlink" viewBox="0 0 100 100"><defs><style>.cls-1,.cls-2,.cls-3,.cls-4{fill:none;}.cls-2{clip-path:url(#clip-path);}.cls-3{clip-path:url(#clip-path-2);}.cls-4{clip-path:url(#clip-path-3);}.cls-5{clip-path:url(#clip-path-4);}.cls-6,.cls-9{fill-rule:evenodd;}.cls-7{clip-path:url(#clip-path-5);}.cls-8{clip-path:url(#clip-path-6);}.cls-9{fill:#054080;}.cls-10{clip-path:url(#clip-path-7);}.cls-11{clip-path:url(#clip-path-8);}.cls-12{clip-path:url(#clip-path-9);}.cls-13{clip-path:url(#clip-path-10);}</style><clipPath id="clip-path"><polygon class="cls-1" points="64.57 -79.64 65.36 -79.64 64.57 -78.85 64.57 -79.64"/></clipPath><clipPath id="clip-path-2"><polygon class="cls-1" points="-138.06 -28 -136.99 -28 -138.06 -26.94 -138.06 -28"/></clipPath><clipPath id="clip-path-3"><polygon class="cls-1" points="-354.36 74.67 -353.66 74.67 -354.36 75.37 -354.36 74.67"/></clipPath><clipPath id="clip-path-4"><rect class="cls-1" width="100" height="100"/></clipPath><clipPath id="clip-path-5"><rect class="cls-1" x="220.09" y="0.09" width="99.81" height="99.81"/></clipPath><clipPath id="clip-path-6"><polygon class="cls-2" points="62.98 -81.23 62.18 -81.23 62.98 -82.03 62.98 -81.23"/></clipPath><clipPath id="clip-path-7"><rect class="cls-1" x="0.09" y="110.09" width="99.81" height="99.81"/></clipPath><clipPath id="clip-path-8"><polygon class="cls-3" points="-140.18 -30.13 -141.25 -30.13 -140.18 -31.19 -140.18 -30.13"/></clipPath><clipPath id="clip-path-9"><rect class="cls-1" x="-218.91" y="110.09" width="99.81" height="99.81"/></clipPath><clipPath id="clip-path-10"><polygon class="cls-4" points="-355.76 73.27 -356.45 73.27 -355.76 72.57 -355.76 73.27"/></clipPath></defs><title>Artboard 1 copy 3</title><g class="cls-5"><path id="r10C0" class="cls-6" d="M-.36-.9H11.36V10.83H-.36Z"/><path id="r10C1" class="cls-6" d="M10.81-.9H22.53V10.83H10.81Z"/><path id="r10C2" class="cls-6" d="M22-.9H33.7V10.83H22Z"/><path id="r10C6" class="cls-6" d="M66.65-.9H78.37V10.83H66.65Z"/><path id="r10C7" class="cls-6" d="M77.81-.9H89.54V10.83H77.81Z"/><path id="r10C8" class="cls-6" d="M89-.9h11.73V10.83H89Z"/><path id="r11C0" class="cls-6" d="M-.36,10.27H11.36V22H-.36Z"/><path id="r11C4" class="cls-6" d="M44.31,10.27H56V22H44.31Z"/><path id="r11C8" class="cls-6" d="M89,10.27h11.73V22H89Z"/><path id="r12C2" class="cls-6" d="M22,21.44H33.7V33.16H22Z"/><path id="r12C3" class="cls-6" d="M33.14,21.44H44.87V33.16H33.14Z"/><path id="r12C4" class="cls-6" d="M44.31,21.44H56V33.16H44.31Z"/><path id="r12C5" class="cls-6" d="M55.48,21.44H67.21V33.16H55.48Z"/><path id="r12C6" class="cls-6" d="M66.65,21.44H78.37V33.16H66.65Z"/><path id="r13C0" class="cls-6" d="M-.36,32.6H11.36V44.33H-.36Z"/><path id="r13C3" class="cls-6" d="M33.14,32.6H44.87V44.33H33.14Z"/><path id="r13C4" class="cls-6" d="M44.31,32.6H56V44.33H44.31Z"/><path id="r13C7" class="cls-6" d="M77.81,32.6H89.54V44.33H77.81Z"/><path id="r13C8" class="cls-6" d="M89,32.6h11.73V44.33H89Z"/><path id="r14C1" class="cls-6" d="M10.81,43.77H22.53V55.5H10.81Z"/><path id="r14C2" class="cls-6" d="M22,43.77H33.7V55.5H22Z"/><path id="r14C4" class="cls-6" d="M44.31,43.77H56V55.5H44.31Z"/><path id="r14C6" class="cls-6" d="M66.65,43.77H78.37V55.5H66.65Z"/><path id="r14C8" class="cls-6" d="M89,43.77h11.73V55.5H89Z"/><path id="r15C0" class="cls-6" d="M-.36,54.94H11.36V66.67H-.36Z"/><path id="r15C1" class="cls-6" d="M10.81,54.94H22.53V66.67H10.81Z"/><path id="r15C2" class="cls-6" d="M22,54.94H33.7V66.67H22Z"/><path id="r15C3" class="cls-6" d="M33.14,54.94H44.87V66.67H33.14Z"/><path id="r15C4" class="cls-6" d="M44.31,54.94H56V66.67H44.31Z"/><path id="r15C5" class="cls-6" d="M55.48,54.94H67.21V66.67H55.48Z"/><path id="r15C7" class="cls-6" d="M77.81,54.94H89.54V66.67H77.81Z"/><path id="r16C0" class="cls-6" d="M-.36,66.11H11.36V77.83H-.36Z"/><path id="r16C2" class="cls-6" d="M22,66.11H33.7V77.83H22Z"/><path id="r16C4" class="cls-6" d="M44.31,66.11H56V77.83H44.31Z"/><path id="r16C6" class="cls-6" d="M66.65,66.11H78.37V77.83H66.65Z"/><path id="r16C8" class="cls-6" d="M89,66.11h11.73V77.83H89Z"/><path id="r17C4" class="cls-6" d="M44.31,77.28H56V89H44.31Z"/><path id="r17C7" class="cls-6" d="M77.81,77.28H89.54V89H77.81Z"/><path id="r18C0" class="cls-6" d="M-.36,88.44H11.36v11.73H-.36Z"/><path id="r18C4" class="cls-6" d="M44.31,88.44H56v11.73H44.31Z"/><path id="r18C6" class="cls-6" d="M66.65,88.44H78.37v11.73H66.65Z"/><path id="r18C7" class="cls-6" d="M77.81,88.44H89.54v11.73H77.81Z"/></g><g class="cls-7"><g class="cls-8"><path id="SvgjsPath1004" class="cls-9" d="M152-36A44.12,44.12,0,0,1,107.9,8.11,44.12,44.12,0,0,1,63.77-36,44.12,44.12,0,0,1,107.9-80.13,44.12,44.12,0,0,1,152-36ZM107.9-70.33A34.32,34.32,0,0,0,73.58-36,34.32,34.32,0,0,0,107.9-1.69,34.33,34.33,0,0,0,142.22-36,34.33,34.33,0,0,0,107.9-70.33Z"/></g></g><g class="cls-10"><g class="cls-11"><path id="SvgjsPath1004-2" data-name="SvgjsPath1004" class="cls-9" d="M-124.24,18.35A32.41,32.41,0,0,1-91.7-14.19H407.2V517.26H-124.24Z"/></g><path id="r6C8" class="cls-6" d="M17,125.24V77.65A31.88,31.88,0,0,0,48.9,109.53H1.31A31.88,31.88,0,0,0,33.2,77.65v47.59A31.89,31.89,0,0,0,1.31,93.35H48.9A31.89,31.89,0,0,0,17,125.24Z"/><path id="r6C10" class="cls-6" d="M50.73,125.24V77.65a31.88,31.88,0,0,0,31.89,31.88H35A31.88,31.88,0,0,0,66.92,77.65v47.59A31.89,31.89,0,0,0,35,93.35H82.62A31.89,31.89,0,0,0,50.73,125.24Z"/><path id="r6C12" class="cls-6" d="M84.45,125.24V77.65a31.88,31.88,0,0,0,31.89,31.88H68.75a31.88,31.88,0,0,0,31.89-31.88v47.59A31.89,31.89,0,0,0,68.75,93.35h47.59A31.89,31.89,0,0,0,84.45,125.24Z"/><path id="r7C8" class="cls-6" d="M17,142.1V94.51A31.88,31.88,0,0,0,48.9,126.39H1.31A31.88,31.88,0,0,0,33.2,94.51V142.1A31.89,31.89,0,0,0,1.31,110.21H48.9A31.89,31.89,0,0,0,17,142.1Z"/><path id="r7C9" class="cls-6" d="M33.87,142.1V94.51a31.88,31.88,0,0,0,31.89,31.88H18.17A31.88,31.88,0,0,0,50.06,94.51V142.1a31.89,31.89,0,0,0-31.89-31.89H65.76A31.89,31.89,0,0,0,33.87,142.1Z"/><path id="r7C12" class="cls-6" d="M84.45,142.1V94.51a31.88,31.88,0,0,0,31.89,31.88H68.75a31.88,31.88,0,0,0,31.89-31.88V142.1a31.89,31.89,0,0,0-31.89-31.89h47.59A31.89,31.89,0,0,0,84.45,142.1Z"/></g><g class="cls-12"><g class="cls-13"><path id="SvgjsPath1004-3" data-name="SvgjsPath1004" class="cls-9" d="M-345.27,105.15a21.31,21.31,0,0,1,21.39-21.39H4.2V433.23H-345.27Z"/></g></g></svg>