<svg id="Layer_1" data-name="Layer 1" xmlns="http://www.w3.org/2000/svg" xmlns:xlink="http://www.w3.org/1999/xlink" viewBox="0 0 100 100"><defs><style>.cls-1,.cls-2,.cls-3{fill:none;}.cls-2{clip-path:url(#clip-path);}.cls-3{clip-path:url(#clip-path-2);}.cls-4{clip-path:url(#clip-path-3);}.cls-5{clip-path:url(#clip-path-4);}.cls-6{clip-path:url(#clip-path-5);}.cls-7{fill:#054080;fill-rule:evenodd;}.cls-8{clip-path:url(#clip-path-6);}.cls-9{clip-path:url(#clip-path-7);}</style><clipPath id="clip-path"><polygon class="cls-1" points="80.94 -28 82.01 -28 80.94 -26.94 80.94 -28"/></clipPath><clipPath id="clip-path-2"><polygon class="cls-1" points="-135.36 74.67 -134.66 74.67 -135.36 75.37 -135.36 74.67"/></clipPath><clipPath id="clip-path-3"><rect class="cls-1" x="0.09" y="0.09" width="99.81" height="99.81"/></clipPath><clipPath id="clip-path-4"><rect class="cls-1" x="219.09" y="110.09" width="99.81" height="99.81"/></clipPath><clipPath id="clip-path-5"><polygon class="cls-2" points="78.82 -30.13 77.75 -30.13 78.82 -31.19 78.82 -30.13"/></clipPath><clipPath id="clip-path-6"><rect class="cls-1" x="0.09" y="110.09" width="99.81" height="99.81"/></clipPath><clipPath id="clip-path-7"><polygon class="cls-3" points="-136.76 73.27 -137.46 73.27 -136.76 72.57 -136.76 73.27"/></clipPath></defs><title>Artboard 1 copy</title><g class="cls-4"><circle id="r15C9" cx="25.71" cy="8.98" r="5.15"/><circle id="r15C11" cx="58.37" cy="8.98" r="5.15"/><circle id="r15C12" cx="74.69" cy="8.98" r="5.15"/><circle id="r16C8" cx="9.39" cy="25.31" r="5.15"/><circle id="r16C11" cx="58.37" cy="25.31" r="5.15"/><circle id="r16C12" cx="74.69" cy="25.31" r="5.15"/><circle id="r17C9" cx="25.71" cy="41.63" r="5.15"/><circle id="r17C10" cx="42.04" cy="41.63" r="5.15"/><circle id="r17C11" cx="58.37" cy="41.63" r="5.15"/><circle id="r17C12" cx="74.69" cy="41.63" r="5.15"/><circle id="r17C13" cx="91.02" cy="41.63" r="5.15"/><circle id="r18C9" cx="25.71" cy="57.96" r="5.15"/><circle id="r18C10" cx="42.04" cy="57.96" r="5.15"/><circle id="r18C11" cx="58.37" cy="57.96" r="5.15"/><circle id="r19C11" cx="58.37" cy="74.29" r="5.15"/><circle id="r19C12" cx="74.69" cy="74.29" r="5.15"/><circle id="r19C13" cx="91.02" cy="74.29" r="5.15"/><circle id="r20C8" cx="9.39" cy="90.61" r="5.15"/><circle id="r20C9" cx="25.71" cy="90.61" r="5.15"/><circle id="r20C11" cx="58.37" cy="90.61" r="5.15"/></g><g class="cls-5"><g class="cls-6"><path id="SvgjsPath1004" class="cls-7" d="M94.76,18.35A32.41,32.41,0,0,1,127.3-14.19H626.2V517.26H94.76Z"/></g></g><g class="cls-8"><g class="cls-9"><path id="SvgjsPath1004-2" data-name="SvgjsPath1004" class="cls-7" d="M-126.27,105.15a21.31,21.31,0,0,1,21.39-21.39H223.2V433.23H-126.27Z"/></g></g></svg>